<svg width="20" height="21" viewBox="0 0 20 21" fill="none" xmlns="http://www.w3.org/2000/svg">
<path d="M13.7279 11.9192C13.8836 11.7665 14.0076 11.5845 14.0926 11.3837C14.1775 11.1828 14.2219 10.9671 14.223 10.749C14.2241 10.531 14.1819 10.3148 14.099 10.1131C14.016 9.91144 13.8939 9.7282 13.7397 9.57399C13.5855 9.41978 13.4022 9.29767 13.2006 9.21472C12.9989 9.13177 12.7827 9.08963 12.5646 9.09073C12.3466 9.09184 12.1309 9.13616 11.93 9.22114C11.7292 9.30612 11.5472 9.43007 11.3945 9.58583C11.0903 9.89631 10.9208 10.3143 10.923 10.749C10.9252 11.1838 11.0989 11.6 11.4063 11.9074C11.7136 12.2148 12.1299 12.3885 12.5646 12.3907C12.9994 12.3929 13.4174 12.2234 13.7279 11.9192ZM6.91564 11.9192C7.0714 11.7665 7.19535 11.5845 7.28033 11.3837C7.36531 11.1828 7.40963 10.9671 7.41073 10.749C7.41184 10.531 7.36969 10.3148 7.28675 10.1131C7.2038 9.91144 7.08169 9.7282 6.92748 9.57399C6.77327 9.41978 6.59002 9.29767 6.38833 9.21472C6.18664 9.13177 5.9705 9.08963 5.75242 9.09073C5.53434 9.09184 5.31864 9.13616 5.1178 9.22114C4.91695 9.30612 4.73495 9.43007 4.5823 9.58583C4.27803 9.89631 4.10858 10.3143 4.11078 10.749C4.11297 11.1838 4.28664 11.6 4.59403 11.9074C4.90142 12.2148 5.31771 12.3885 5.75242 12.3907C6.18714 12.3929 6.60515 12.2234 6.91564 11.9192ZM10.3451 6.19139C10.1926 6.0352 10.0107 5.91082 9.80979 5.82546C9.6089 5.74011 9.39307 5.69547 9.17481 5.69414C8.95654 5.69281 8.74019 5.73481 8.53828 5.81771C8.33636 5.90061 8.15291 6.02276 7.99856 6.17708C7.8442 6.3314 7.72201 6.51482 7.63906 6.71671C7.55611 6.91861 7.51406 7.13495 7.51534 7.35322C7.51661 7.57148 7.5612 7.78732 7.64651 7.98823C7.73182 8.18913 7.85615 8.37111 8.0123 8.52361C8.32283 8.82687 8.74038 8.99551 9.17441 8.99297C9.60845 8.99043 10.024 8.81691 10.3309 8.51003C10.6379 8.20315 10.8115 7.78765 10.8142 7.35361C10.8168 6.91957 10.6483 6.50199 10.3451 6.19139ZM10.3451 13.0036C10.1926 12.8474 10.0107 12.723 9.80979 12.6377C9.6089 12.5523 9.39307 12.5077 9.17481 12.5064C8.95654 12.505 8.74019 12.547 8.53828 12.6299C8.33636 12.7128 8.15291 12.835 7.99856 12.9893C7.8442 13.1436 7.72201 13.327 7.63906 13.5289C7.55611 13.7308 7.51406 13.9472 7.51534 14.1654C7.51661 14.3837 7.5612 14.5995 7.64651 14.8004C7.73182 15.0014 7.85615 15.1833 8.0123 15.3358C8.32283 15.6391 8.74038 15.8077 9.17441 15.8052C9.60845 15.8026 10.024 15.6291 10.3309 15.3222C10.6379 15.0154 10.8115 14.5999 10.8142 14.1658C10.8168 13.7318 10.6483 13.3142 10.3451 13.0036ZM9.4873 10.4319C9.44368 10.3883 9.39187 10.3536 9.33486 10.33C9.27784 10.3063 9.21673 10.2942 9.155 10.2941C9.09327 10.2941 9.03215 10.3062 8.97511 10.3298C8.91808 10.3534 8.86625 10.388 8.82258 10.4317C8.77892 10.4753 8.74427 10.5271 8.72063 10.5841C8.69698 10.6411 8.6848 10.7022 8.68477 10.764C8.68475 10.8257 8.69688 10.8868 8.72048 10.9439C8.74408 11.0009 8.77868 11.0527 8.8223 11.0964C8.91041 11.1846 9.02995 11.2341 9.15461 11.2342C9.27927 11.2342 9.39884 11.1848 9.48703 11.0967C9.57521 11.0086 9.62478 10.889 9.62483 10.7644C9.62489 10.6397 9.57541 10.5201 9.4873 10.4319ZM19.5206 10.0742C17.6706 13.9147 14.9845 15.5897 13.0567 16.3186C11.629 16.8581 10.4112 16.9731 9.75175 16.9897C9.55841 17.0075 9.36397 17.0192 9.1673 17.0192C5.71508 17.0192 2.91675 14.2208 2.91675 10.7692C2.91675 7.3175 5.71508 4.51917 9.16675 4.51917C12.619 4.51917 15.4167 7.3175 15.4167 10.7692C15.4184 12.1957 14.9294 13.5794 14.0317 14.6881C15.6051 13.7925 17.2784 12.2536 18.5529 9.60861C18.6192 9.48814 18.7291 9.39766 18.8601 9.35577C18.9911 9.31387 19.1332 9.32375 19.2571 9.38336C19.381 9.44298 19.4774 9.5478 19.5264 9.67629C19.5754 9.80477 19.5734 9.94716 19.5206 10.0742Z" fill="white"/>
</svg>
