<svg width="20" height="21" viewBox="0 0 20 21" fill="none" xmlns="http://www.w3.org/2000/svg">
<path d="M17.8125 10.7692C17.8125 11.0178 17.7137 11.2563 17.5379 11.4321C17.3621 11.6079 17.1236 11.7067 16.875 11.7067H10.9375V17.6442C10.9375 17.8928 10.8387 18.1313 10.6629 18.3071C10.4871 18.4829 10.2486 18.5817 10 18.5817C9.75136 18.5817 9.5129 18.4829 9.33709 18.3071C9.16127 18.1313 9.0625 17.8928 9.0625 17.6442V11.7067H3.125C2.87636 11.7067 2.6379 11.6079 2.46209 11.4321C2.28627 11.2563 2.1875 11.0178 2.1875 10.7692C2.1875 10.5205 2.28627 10.2821 2.46209 10.1063C2.6379 9.93044 2.87636 9.83167 3.125 9.83167H9.0625V3.89417C9.0625 3.64552 9.16127 3.40707 9.33709 3.23125C9.5129 3.05544 9.75136 2.95667 10 2.95667C10.2486 2.95667 10.4871 3.05544 10.6629 3.23125C10.8387 3.40707 10.9375 3.64552 10.9375 3.89417V9.83167H16.875C17.1236 9.83167 17.3621 9.93044 17.5379 10.1063C17.7137 10.2821 17.8125 10.5205 17.8125 10.7692Z" fill="white"/>
</svg>
