<svg width="20" height="21" viewBox="0 0 20 21" fill="none" xmlns="http://www.w3.org/2000/svg">
<path d="M12.1477 14.2898C9.9627 15.8242 6.92659 15.6153 4.97325 13.662C2.78659 11.4753 2.78659 7.92976 4.97325 5.74254C7.16047 3.55587 10.7066 3.55587 12.8933 5.74254C14.7416 7.59087 15.0277 10.4103 13.7516 12.5592L16.2849 15.0914C16.3881 15.1946 16.47 15.3171 16.5259 15.452C16.5818 15.5868 16.6105 15.7313 16.6105 15.8773C16.6105 16.0232 16.5818 16.1677 16.5259 16.3026C16.47 16.4374 16.3881 16.5599 16.2849 16.6631L16.1883 16.7592C15.9799 16.9675 15.6973 17.0845 15.4027 17.0845C15.1081 17.0845 14.8255 16.9675 14.6171 16.7592L12.1477 14.2898ZM8.93325 13.5342C9.94947 13.5342 10.9241 13.1305 11.6426 12.4119C12.3612 11.6934 12.7649 10.7188 12.7649 9.70254C12.7649 8.68632 12.3612 7.71172 11.6426 6.99314C10.9241 6.27457 9.94947 5.87087 8.93325 5.87087C7.91703 5.87087 6.94243 6.27457 6.22386 6.99314C5.50528 7.71172 5.10159 8.68632 5.10159 9.70254C5.10159 10.7188 5.50528 11.6934 6.22386 12.4119C6.94243 13.1305 7.91703 13.5342 8.93325 13.5342Z" fill="white"/>
</svg>
