<svg width="20" height="21" viewBox="0 0 20 21" fill="none" xmlns="http://www.w3.org/2000/svg">
<path d="M10.4667 7.41633H14.2012C14.7906 7.41633 15.3558 7.65046 15.7725 8.0672C16.1893 8.48395 16.4234 9.04918 16.4234 9.63855V15.2136C16.4234 15.8029 16.1893 16.3682 15.7725 16.7849C15.3558 17.2016 14.7906 17.4358 14.2012 17.4358H5.76397C5.1746 17.4358 4.60937 17.2016 4.19262 16.7849C3.77587 16.3682 3.54175 15.8029 3.54175 15.2136V9.63855C3.54175 9.04918 3.77587 8.48395 4.19262 8.0672C4.60937 7.65046 5.1746 7.41633 5.76397 7.41633H9.21453L7.00286 5.20466C6.94289 5.14473 6.89531 5.07357 6.86284 4.99525C6.83037 4.91693 6.81365 4.83298 6.81362 4.74819C6.81359 4.66341 6.83027 4.57945 6.86269 4.50111C6.89511 4.42277 6.94265 4.35158 7.00258 4.29161C7.06252 4.23164 7.13367 4.18406 7.212 4.15159C7.29032 4.11912 7.37427 4.10239 7.45905 4.10237C7.54384 4.10234 7.6278 4.11902 7.70614 4.15144C7.78448 4.18386 7.85567 4.2314 7.91564 4.29133L9.84064 6.21633L11.7651 4.29133C11.8862 4.17021 12.0505 4.10217 12.2217 4.10217C12.393 4.10217 12.5573 4.17021 12.6784 4.29133C12.7995 4.41245 12.8676 4.57671 12.8676 4.748C12.8676 4.91928 12.7995 5.08355 12.6784 5.20466L10.4667 7.41633ZM14.0379 11.7108C14.291 11.7108 14.5338 11.6102 14.7128 11.4312C14.8917 11.2522 14.9923 11.0095 14.9923 10.7563C14.9923 10.5032 14.8917 10.2604 14.7128 10.0814C14.5338 9.90244 14.291 9.80189 14.0379 9.80189C13.7847 9.80189 13.542 9.90244 13.363 10.0814C13.184 10.2604 13.0834 10.5032 13.0834 10.7563C13.0834 11.0095 13.184 11.2522 13.363 11.4312C13.542 11.6102 13.7847 11.7108 14.0379 11.7108ZM14.0379 15.0502C14.1651 15.0533 14.2917 15.0309 14.4101 14.9843C14.5286 14.9377 14.6365 14.8679 14.7276 14.779C14.8187 14.6901 14.891 14.5839 14.9405 14.4666C14.9899 14.3493 15.0153 14.2233 15.0153 14.0961C15.0153 13.9688 14.9899 13.8428 14.9405 13.7255C14.891 13.6082 14.8187 13.502 14.7276 13.4131C14.6365 13.3242 14.5286 13.2544 14.4101 13.2078C14.2917 13.1612 14.1651 13.1388 14.0379 13.1419C13.7888 13.1479 13.5519 13.2511 13.3779 13.4293C13.2039 13.6076 13.1064 13.8469 13.1064 14.0961C13.1064 14.3452 13.2039 14.5845 13.3779 14.7628C13.5519 14.941 13.7888 15.0442 14.0379 15.0502Z" fill="white"/>
</svg>
